#Comment line ignore any data following # character 
#Hierarchical Translation and Rotation (.htr) file 
[Header]	
#Header keywords are followed by a single value 
FileType HTR		#Single word string
DataType HTRS		#Translation followed by rotation and scale data
FileVersion 1		#integer
NumSegments 84		#integer
NumFrames 2		#integer
DataFrameRate 30		#integer, data frame rate in this file
EulerRotationOrder ZYX
CalibrationUnits mm
RotationUnits Degrees
GlobalAxisofGravity Y
BoneLengthAxis Y
ScaleFactor 1.00
[SegmentNames&Hierarchy]
#CHILD	PARENT
MASTER GLOBAL
root MASTER
chest root
L_mid_tent01 root
R_mid_tent01 root
spine01 root
Bip01_Neck chest
L_humerus chest
R_humerus chest
weapon_bone chest
Bip01_Head Bip01_Neck
eye_left_bone Bip01_Head
eye_right_bone Bip01_Head
L_forearm L_humerus
L_front_hand L_forearm
L_weapon_bone L_forearm
L_front_hand01_01 L_front_hand
L_front_hand02_01 L_front_hand
L_front_hand03_01 L_front_hand
L_front_hand01_02 L_front_hand01_01
L_front_hand02_02 L_front_hand02_01
L_front_hand03_02 L_front_hand03_01
R_forearm R_humerus
R_front_hand R_forearm
R_weapon_bone R_forearm
R_front_hand01_01 R_front_hand
R_front_hand02_01 R_front_hand
R_front_hand03_01 R_front_hand
R_front_hand01_02 R_front_hand01_01
R_front_hand02_02 R_front_hand02_01
R_front_hand03_02 R_front_hand03_01
null_rope01_connect L_mid_tent01
Rope1_Seg01 null_rope01_connect
Rope1_Seg02 Rope1_Seg01
Rope1_Seg03 Rope1_Seg02
Rope1_Seg04 Rope1_Seg03
Rope1_Seg05 Rope1_Seg04
Rope1_Seg06 Rope1_Seg05
Rope1_Seg07 Rope1_Seg06
Rope1_Seg09 Rope1_Seg07
L_mid_hand01 Rope1_Seg09
L_mid_hand02 Rope1_Seg09
L_mid_hand03 Rope1_Seg09
null_rope02_connect R_mid_tent01
Rope2_Seg01 null_rope02_connect
Rope2_Seg02 Rope2_Seg01
Rope2_Seg03 Rope2_Seg02
Rope2_Seg04 Rope2_Seg03
Rope2_Seg05 Rope2_Seg04
Rope2_Seg06 Rope2_Seg05
Rope2_Seg07 Rope2_Seg06
Rope2_Seg09 Rope2_Seg07
R_mid_hand01 Rope2_Seg09
R_mid_hand02 Rope2_Seg09
R_mid_hand03 Rope2_Seg09
spine02 spine01
spine03 spine02
pelvis spine03
null_rope03_connect pelvis
null_rope04_connect pelvis
Rope3_Seg01 null_rope03_connect
Rope3_Seg02 Rope3_Seg01
Rope3_Seg03 Rope3_Seg02
Rope3_Seg04 Rope3_Seg03
Rope3_Seg05 Rope3_Seg04
Rope3_Seg06 Rope3_Seg05
Rope3_Seg07 Rope3_Seg06
Rope3_Seg08 Rope3_Seg07
Rope3_Seg09 Rope3_Seg08
R_rear_hand01 Rope3_Seg09
R_rear_hand02 Rope3_Seg09
R_rear_hand03 Rope3_Seg09
Rope4_Seg01 null_rope04_connect
Rope4_Seg02 Rope4_Seg01
Rope4_Seg03 Rope4_Seg02
Rope4_Seg04 Rope4_Seg03
Rope4_Seg05 Rope4_Seg04
Rope4_Seg06 Rope4_Seg05
Rope4_Seg07 Rope4_Seg06
Rope4_Seg08 Rope4_Seg07
Rope4_Seg09 Rope4_Seg08
L_rear_hand01 Rope4_Seg09
L_rear_hand02 Rope4_Seg09
L_rear_hand03 Rope4_Seg09
[BasePosition]
#SegmentName Tx, Ty, Tz, Rx, Ry, Rz, BoneLength
MASTER 0.000000 0.000000 0.000000 -90.000000 0.000000 0.000000 10.000000 
root 0.000000 0.000000 0.000000 0.000000 0.000000 0.000000 10.000000 
chest 0.000000 0.000000 0.000000 0.000000 0.000000 0.000000 10.000000 
L_mid_tent01 0.000000 0.000000 0.000000 0.000000 0.000000 0.000000 10.000000 
R_mid_tent01 0.000000 0.000000 0.000000 0.000000 0.000000 0.000000 10.000000 
spine01 0.000000 0.000000 0.000000 0.000000 0.000000 0.000000 10.000000 
Bip01_Neck 0.000000 0.000000 0.000000 0.000000 0.000000 0.000000 10.000000 
L_humerus 0.000000 0.000000 0.000000 0.000000 0.000000 0.000000 10.000000 
R_humerus 0.000000 0.000000 0.000000 0.000000 0.000000 0.000000 10.000000 
weapon_bone 0.000000 0.000000 0.000000 0.000000 0.000000 0.000000 10.000000 
Bip01_Head 0.000000 0.000000 0.000000 0.000000 0.000000 0.000000 10.000000 
eye_left_bone 0.000000 0.000000 0.000000 0.000000 0.000000 0.000000 10.000000 
eye_right_bone 0.000000 0.000000 0.000000 0.000000 0.000000 0.000000 10.000000 
L_forearm 0.000000 0.000000 0.000000 0.000000 0.000000 0.000000 10.000000 
L_front_hand 0.000000 0.000000 0.000000 0.000000 0.000000 0.000000 10.000000 
L_weapon_bone 0.000000 0.000000 0.000000 0.000000 0.000000 0.000000 10.000000 
L_front_hand01_01 0.000000 0.000000 0.000000 0.000000 0.000000 0.000000 10.000000 
L_front_hand02_01 0.000000 0.000000 0.000000 0.000000 0.000000 0.000000 10.000000 
L_front_hand03_01 0.000000 0.000000 0.000000 0.000000 0.000000 0.000000 10.000000 
L_front_hand01_02 0.000000 0.000000 0.000000 0.000000 0.000000 0.000000 10.000000 
L_front_hand02_02 0.000000 0.000000 0.000000 0.000000 0.000000 0.000000 10.000000 
L_front_hand03_02 0.000000 0.000000 0.000000 0.000000 0.000000 0.000000 10.000000 
R_forearm 0.000000 0.000000 0.000000 0.000000 0.000000 0.000000 10.000000 
R_front_hand 0.000000 0.000000 0.000000 0.000000 0.000000 0.000000 10.000000 
R_weapon_bone 0.000000 0.000000 0.000000 0.000000 0.000000 0.000000 10.000000 
R_front_hand01_01 0.000000 0.000000 0.000000 0.000000 0.000000 0.000000 10.000000 
R_front_hand02_01 0.000000 0.000000 0.000000 0.000000 0.000000 0.000000 10.000000 
R_front_hand03_01 0.000000 0.000000 0.000000 0.000000 0.000000 0.000000 10.000000 
R_front_hand01_02 0.000000 0.000000 0.000000 0.000000 0.000000 0.000000 10.000000 
R_front_hand02_02 0.000000 0.000000 0.000000 0.000000 0.000000 0.000000 10.000000 
R_front_hand03_02 0.000000 0.000000 0.000000 0.000000 0.000000 0.000000 10.000000 
null_rope01_connect 0.000000 0.000000 0.000000 0.000000 0.000000 0.000000 10.000000 
Rope1_Seg01 0.000000 0.000000 0.000000 0.000000 0.000000 0.000000 10.000000 
Rope1_Seg02 0.000000 0.000000 0.000000 0.000000 0.000000 0.000000 10.000000 
Rope1_Seg03 0.000000 0.000000 0.000000 0.000000 0.000000 0.000000 10.000000 
Rope1_Seg04 0.000000 0.000000 0.000000 0.000000 0.000000 0.000000 10.000000 
Rope1_Seg05 0.000000 0.000000 0.000000 0.000000 0.000000 0.000000 10.000000 
Rope1_Seg06 0.000000 0.000000 0.000000 0.000000 0.000000 0.000000 10.000000 
Rope1_Seg07 0.000000 0.000000 0.000000 0.000000 0.000000 0.000000 10.000000 
Rope1_Seg09 0.000000 0.000000 0.000000 0.000000 0.000000 0.000000 10.000000 
L_mid_hand01 0.000000 0.000000 0.000000 0.000000 0.000000 0.000000 10.000000 
L_mid_hand02 0.000000 0.000000 0.000000 0.000000 0.000000 0.000000 10.000000 
L_mid_hand03 0.000000 0.000000 0.000000 0.000000 0.000000 0.000000 10.000000 
null_rope02_connect 0.000000 0.000000 0.000000 0.000000 0.000000 0.000000 10.000000 
Rope2_Seg01 0.000000 0.000000 0.000000 0.000000 0.000000 0.000000 10.000000 
Rope2_Seg02 0.000000 0.000000 0.000000 0.000000 0.000000 0.000000 10.000000 
Rope2_Seg03 0.000000 0.000000 0.000000 0.000000 0.000000 0.000000 10.000000 
Rope2_Seg04 0.000000 0.000000 0.000000 0.000000 0.000000 0.000000 10.000000 
Rope2_Seg05 0.000000 0.000000 0.000000 0.000000 0.000000 0.000000 10.000000 
Rope2_Seg06 0.000000 0.000000 0.000000 0.000000 0.000000 0.000000 10.000000 
Rope2_Seg07 0.000000 0.000000 0.000000 0.000000 0.000000 0.000000 10.000000 
Rope2_Seg09 0.000000 0.000000 0.000000 0.000000 0.000000 0.000000 10.000000 
R_mid_hand01 0.000000 0.000000 0.000000 0.000000 0.000000 0.000000 10.000000 
R_mid_hand02 0.000000 0.000000 0.000000 0.000000 0.000000 0.000000 10.000000 
R_mid_hand03 0.000000 0.000000 0.000000 0.000000 0.000000 0.000000 10.000000 
spine02 0.000000 0.000000 0.000000 0.000000 0.000000 0.000000 10.000000 
spine03 0.000000 0.000000 0.000000 0.000000 0.000000 0.000000 10.000000 
pelvis 0.000000 0.000000 0.000000 0.000000 0.000000 0.000000 10.000000 
null_rope03_connect 0.000000 0.000000 0.000000 0.000000 0.000000 0.000000 10.000000 
null_rope04_connect 0.000000 0.000000 0.000000 0.000000 0.000000 0.000000 10.000000 
Rope3_Seg01 0.000000 0.000000 0.000000 0.000000 0.000000 0.000000 10.000000 
Rope3_Seg02 0.000000 0.000000 0.000000 0.000000 0.000000 0.000000 10.000000 
Rope3_Seg03 0.000000 0.000000 0.000000 0.000000 0.000000 0.000000 10.000000 
Rope3_Seg04 0.000000 0.000000 0.000000 0.000000 0.000000 0.000000 10.000000 
Rope3_Seg05 0.000000 0.000000 0.000000 0.000000 0.000000 0.000000 10.000000 
Rope3_Seg06 0.000000 0.000000 0.000000 0.000000 0.000000 0.000000 10.000000 
Rope3_Seg07 0.000000 0.000000 0.000000 0.000000 0.000000 0.000000 10.000000 
Rope3_Seg08 0.000000 0.000000 0.000000 0.000000 0.000000 0.000000 10.000000 
Rope3_Seg09 0.000000 0.000000 0.000000 0.000000 0.000000 0.000000 10.000000 
R_rear_hand01 0.000000 0.000000 0.000000 0.000000 0.000000 0.000000 10.000000 
R_rear_hand02 0.000000 0.000000 0.000000 0.000000 0.000000 0.000000 10.000000 
R_rear_hand03 0.000000 0.000000 0.000000 0.000000 0.000000 0.000000 10.000000 
Rope4_Seg01 0.000000 0.000000 0.000000 0.000000 0.000000 0.000000 10.000000 
Rope4_Seg02 0.000000 0.000000 0.000000 0.000000 0.000000 0.000000 10.000000 
Rope4_Seg03 0.000000 0.000000 0.000000 0.000000 0.000000 0.000000 10.000000 
Rope4_Seg04 0.000000 0.000000 0.000000 0.000000 0.000000 0.000000 10.000000 
Rope4_Seg05 0.000000 0.000000 0.000000 0.000000 0.000000 0.000000 10.000000 
Rope4_Seg06 0.000000 0.000000 0.000000 0.000000 0.000000 0.000000 10.000000 
Rope4_Seg07 0.000000 0.000000 0.000000 0.000000 0.000000 0.000000 10.000000 
Rope4_Seg08 0.000000 0.000000 0.000000 0.000000 0.000000 0.000000 10.000000 
Rope4_Seg09 0.000000 0.000000 0.000000 0.000000 0.000000 0.000000 10.000000 
L_rear_hand01 0.000000 0.000000 0.000000 0.000000 0.000000 0.000000 10.000000 
L_rear_hand02 0.000000 0.000000 0.000000 0.000000 0.000000 0.000000 10.000000 
L_rear_hand03 0.000000 0.000000 0.000000 0.000000 0.000000 0.000000 10.000000 
#Beginning of Data. Separated by tabs
#Fr	Tx	Ty	Tz	Rx	Ry	Rz	SF
[MASTER]
34 -6043.287598 8380.595703 -77.133621 0.001660 0.001660 0.001660 10332.553711
35 -6182.684082 8626.738281 -123.414970 0.001660 0.001660 0.001660 10614.208984
[root]
34 -16.501465 -59.720505 1497.476807 -91.629829 -26.987452 -90.056046 1498.758057
35 -16.500854 -51.543705 1491.480347 -91.640015 -25.164255 -89.946671 1492.461914
[chest]
34 -84.512650 -34.090519 0.000000 -11.063437 -17.804630 169.063187 91.129311
35 -84.512650 -34.090519 0.000000 -9.961634 -15.366042 168.782684 91.129311
[L_mid_tent01]
34 27.298670 22.179008 -249.919296 -12.191828 28.396254 46.536766 252.382217
35 27.298656 22.179001 -249.919312 -14.099263 26.390015 41.326103 252.382217
[R_mid_tent01]
34 23.228794 24.509907 226.238495 -179.063187 -39.784580 56.640263 228.744751
35 23.228794 24.509907 226.238495 -175.944458 -37.155724 51.077686 228.744751
[spine01]
34 -0.361383 -0.195265 0.000000 0.001978 0.001264 24.824909 0.410763
35 -0.361383 -0.195265 0.000000 0.001973 0.001271 24.401724 0.410763
[Bip01_Neck]
34 165.484543 71.581718 0.000119 176.643677 -1.657967 43.431911 180.302734
35 165.484543 71.581718 0.000119 176.643677 -1.657967 43.431911 180.302734
[L_humerus]
34 -13.983130 -135.272980 -120.471481 -5.813168 67.960190 84.200859 181.680161
35 -13.983130 -135.272980 -120.471481 -5.731516 68.189545 84.290695 181.680161
[R_humerus]
34 -13.983309 -135.273102 125.287651 27.400549 -68.953468 68.261635 184.909012
35 -13.983309 -135.273102 125.287651 27.520147 -69.179955 68.138260 184.909012
[weapon_bone]
34 235.964890 -300.705902 0.000000 0.000000 -89.951546 -128.212341 382.234833
35 235.964890 -300.705902 0.000000 0.000000 -89.951546 -128.212341 382.234833
[Bip01_Head]
34 213.326538 186.042130 7.558994 5.200446 6.151311 -43.834991 283.155487
35 213.326523 186.042084 7.558937 5.200446 6.151311 -43.834991 283.155426
[eye_left_bone]
34 -24.626970 125.451866 -64.772606 0.000000 -90.000000 -99.840431 143.318359
35 -24.626970 125.451866 -64.772606 0.000000 -90.000000 -99.840431 143.318359
[eye_right_bone]
34 -24.626970 125.451866 64.327362 0.000000 -89.965736 80.156380 143.117676
35 -24.626970 125.451866 64.327362 0.000000 -89.965736 80.156380 143.117676
[L_forearm]
34 322.776093 0.000000 -0.000119 0.000402 -0.002313 -109.730682 322.776093
35 322.776093 0.000000 -0.000119 0.000401 -0.002313 -109.650063 322.776093
[L_front_hand]
34 241.149185 -0.042021 -3.300071 -178.667953 -1.835447 -27.422350 241.171753
35 241.149185 -0.042021 -3.300071 -178.667953 -1.835447 -27.422350 241.171753
[L_weapon_bone]
34 156.183838 0.000000 0.000000 0.000014 0.000007 0.000001 156.183838
35 156.183838 0.000000 0.000000 0.000014 0.000007 0.000001 156.183838
[L_front_hand01_01]
34 86.095154 20.947098 -0.655860 -0.366594 -0.477154 75.385574 88.609184
35 86.095154 20.947098 -0.655860 -0.366594 -0.477154 75.385574 88.609184
[L_front_hand02_01]
34 86.935165 -11.437475 24.513514 154.399796 -59.883835 -61.369587 91.046425
35 86.935165 -11.437475 24.513514 154.399796 -59.883835 -61.369587 91.046425
[L_front_hand03_01]
34 86.637497 -14.123976 -20.424902 -153.913849 58.118122 -62.702866 90.126129
35 86.637497 -14.123976 -20.424902 -153.913849 58.118122 -62.702866 90.126129
[L_front_hand01_02]
34 71.020905 -0.000179 0.000030 0.000331 -0.002324 -106.206635 71.020905
35 71.020905 -0.000179 0.000030 0.000332 -0.002324 -106.240639 71.020905
[L_front_hand02_02]
34 71.020927 -0.000119 0.000060 0.000331 -0.002324 -106.206635 71.020927
35 71.020927 -0.000119 0.000060 0.000332 -0.002324 -106.240639 71.020927
[L_front_hand03_02]
34 71.020905 -0.000060 0.000060 0.000331 -0.002324 -106.206635 71.020905
35 71.020905 -0.000060 0.000060 0.000332 -0.002324 -106.240639 71.020905
[R_forearm]
34 322.776428 -0.000060 0.000030 0.201923 0.065714 -108.378181 322.776428
35 322.776428 -0.000060 0.000030 0.201970 0.065567 -108.294846 322.776428
[R_front_hand]
34 238.847015 -0.006795 2.210259 -2.635298 -10.645461 -26.312506 238.857239
35 238.847015 -0.006795 2.210259 -2.635298 -10.645461 -26.312506 238.857239
[R_weapon_bone]
34 155.664093 0.002503 -0.000030 0.003487 0.001180 -90.988930 155.664078
35 155.664093 0.002503 -0.000030 0.003487 0.001180 -90.988930 155.664078
[R_front_hand01_01]
34 87.624611 14.231146 22.918642 -154.633499 -59.950619 61.746044 91.683487
35 87.624611 14.231146 22.918642 -154.633499 -59.950619 61.746044 91.683487
[R_front_hand02_01]
34 89.356956 14.367283 -19.491137 154.602661 58.302849 63.744389 92.579636
35 89.356956 14.367283 -19.491137 154.602661 58.302849 63.744389 92.579636
[R_front_hand03_01]
34 87.286232 -22.307278 -0.143439 0.162155 -0.423168 -75.767921 90.091743
35 87.286232 -22.307278 -0.143439 0.162155 -0.423168 -75.767921 90.091743
[R_front_hand01_02]
34 71.020905 0.000060 0.000119 0.002323 -0.000334 106.381714 71.020905
35 71.020905 0.000060 0.000119 0.002323 -0.000334 106.381714 71.020905
[R_front_hand02_02]
34 71.020844 -0.000030 -0.000119 0.002323 -0.000334 106.381714 71.020836
35 71.020844 -0.000030 -0.000119 0.002323 -0.000334 106.381714 71.020836
[R_front_hand03_02]
34 71.020905 0.000000 0.000030 0.002323 -0.000334 106.381714 71.020905
35 71.020905 0.000000 0.000030 0.002323 -0.000334 106.381714 71.020905
[null_rope01_connect]
34 328.732483 0.000000 -0.000238 -134.772278 -57.714813 -157.742950 328.732483
35 328.732483 0.000000 -0.000238 -136.600342 -58.804813 -152.729492 328.732483
[Rope1_Seg01]
34 0.000000 0.000000 0.000000 79.418381 -17.737629 -145.446671 0.000000
35 0.000000 0.000000 0.000000 72.360046 -19.095825 -139.370346 0.000000
[Rope1_Seg02]
34 139.999863 -0.000179 0.000000 -12.417042 20.772455 -18.079567 139.999863
35 139.999863 -0.000179 0.000000 -12.900757 18.961792 -13.309016 139.999863
[Rope1_Seg03]
34 139.999924 0.000060 -0.000060 -36.540241 13.976292 -7.511376 139.999924
35 139.999924 0.000060 -0.000060 -26.060753 13.308460 -5.288392 139.999924
[Rope1_Seg04]
34 139.999924 -0.000060 -0.000119 -64.776604 8.912178 -0.446026 139.999924
35 139.999924 -0.000060 -0.000119 -37.075916 8.796633 -0.275151 139.999924
[Rope1_Seg05]
34 139.999832 0.000119 -0.000060 -44.413940 5.317856 6.842761 139.999832
35 139.999832 0.000119 -0.000060 -39.672207 6.638836 3.578207 139.999832
[Rope1_Seg06]
34 139.999954 0.000119 -0.000060 -11.289295 -1.361805 7.053946 139.999954
35 139.999954 0.000119 -0.000060 -19.501699 1.944129 5.481943 139.999954
[Rope1_Seg07]
34 139.999985 0.000060 0.000000 -4.282593 -2.115871 5.111587 139.999985
35 139.999985 0.000060 0.000000 -8.540197 -0.046924 4.266332 139.999985
[Rope1_Seg09]
34 121.602913 0.000119 -0.000089 -89.793175 -1.359789 0.847147 121.602913
35 121.602913 0.000119 -0.000089 -89.793175 -1.359789 0.847147 121.602913
[L_mid_hand01]
34 103.859421 1.038730 8.195221 130.544373 -67.584534 -38.866943 104.187431
35 103.859421 1.038730 8.195221 130.544373 -67.584534 -38.866943 104.187431
[L_mid_hand02]
34 105.572853 -4.139662 -10.864139 -168.923172 43.409309 -73.498886 106.211075
35 105.572853 -4.139662 -10.864139 -168.923172 43.409309 -73.498886 106.211075
[L_mid_hand03]
34 104.641464 17.579376 -3.913581 -6.012627 17.808174 74.893669 106.179977
35 104.641464 17.579376 -3.913581 -6.012627 17.808174 74.893669 106.179977
[null_rope02_connect]
34 328.732849 0.000179 -0.000119 -120.082352 51.627617 0.213848 328.732849
35 328.732849 0.000179 -0.000119 -121.382629 53.987400 -3.796882 328.732849
[Rope2_Seg01]
34 0.000070 0.000027 0.000000 177.397354 47.279785 -56.662251 0.000075
35 0.000071 0.000023 0.000000 173.564133 44.829449 -57.652084 0.000074
[Rope2_Seg02]
34 139.999741 -0.000060 -0.000119 37.247955 1.268668 -20.379190 139.999756
35 139.999741 -0.000060 -0.000119 37.653957 5.217431 -18.198711 139.999756
[Rope2_Seg03]
34 140.000107 0.000030 0.000000 26.330866 -6.571100 -13.124702 140.000107
35 140.000107 0.000030 0.000000 35.471596 -4.268584 -14.088470 140.000107
[Rope2_Seg04]
34 139.999802 0.000000 -0.000060 10.264132 -8.892615 -4.205690 139.999802
35 139.999802 0.000000 -0.000060 13.080064 -8.265985 -4.346887 139.999802
[Rope2_Seg05]
34 139.999985 -0.000060 0.000119 2.526031 -10.723913 1.742192 139.999985
35 139.999985 -0.000060 0.000119 2.855636 -9.179822 1.539314 139.999985
[Rope2_Seg06]
34 139.999893 -0.000030 -0.000119 1.244467 -8.831085 1.765930 139.999893
35 139.999893 -0.000030 -0.000119 1.895878 -8.479561 1.478099 139.999893
[Rope2_Seg07]
34 139.999893 0.000060 -0.000060 0.779057 -6.011928 0.946343 139.999893
35 139.999893 0.000060 -0.000060 1.224367 -6.616303 1.045606 139.999893
[Rope2_Seg09]
34 121.338966 0.000089 -0.000060 33.793236 -1.359788 -0.847141 121.338966
35 121.338966 0.000089 -0.000060 33.793236 -1.359788 -0.847141 121.338966
[R_mid_hand01]
34 104.680779 11.144459 -10.335981 -16.212063 45.237247 70.462852 105.778534
35 104.680779 11.144459 -10.335981 -16.212063 45.237247 70.462852 105.778534
[R_mid_hand02]
34 104.070427 2.443552 8.231699 49.067368 -67.749771 39.286453 104.424065
35 104.070427 2.443552 8.231699 49.067368 -67.749771 39.286453 104.424065
[R_mid_hand03]
34 106.028137 -11.221827 -5.996406 -177.101105 15.551026 -76.585571 106.788818
35 106.028137 -11.221827 -5.996406 -177.101105 15.551026 -76.585571 106.788818
[spine02]
34 129.756927 0.001550 0.000119 0.389093 -4.041821 -13.366076 129.756927
35 129.756927 0.001550 0.000119 0.381701 -4.042590 -13.249553 129.756927
[spine03]
34 78.614426 0.081661 -4.899241 1.913843 3.823783 16.755245 78.766983
35 78.614433 0.081657 -4.899248 1.908422 3.827088 16.683422 78.766991
[pelvis]
34 169.435242 0.051022 0.000000 -0.061343 -0.179928 14.646231 169.435257
35 169.435242 0.051022 0.000000 -0.061143 -0.179997 14.519097 169.435257
[null_rope03_connect]
34 -1.257226 -2.466202 137.391083 -125.735420 -89.419868 -160.129700 137.418976
35 -1.257226 -2.466202 137.391083 0.000000 -89.492935 72.841324 137.418976
[null_rope04_connect]
34 -1.259640 -2.480268 -137.844437 -125.735420 -89.419868 -160.129700 137.872513
35 -1.259640 -2.480268 -137.844437 0.000000 -89.492935 72.841324 137.872513
[Rope3_Seg01]
34 0.000011 -0.000490 -0.000153 -132.785080 -18.270065 -72.840836 0.000514
35 0.000011 -0.000507 -0.000153 -131.105789 -10.165837 -76.223122 0.000530
[Rope3_Seg02]
34 139.999924 -0.000119 0.000060 0.720712 -4.264021 -0.569569 139.999924
35 139.999924 -0.000119 0.000060 0.346104 -3.664917 -1.330612 139.999924
[Rope3_Seg03]
34 139.999924 -0.000119 0.000119 -0.050808 -0.993780 -2.505635 139.999924
35 139.999924 -0.000119 0.000119 0.011339 -1.596251 -3.535553 139.999924
[Rope3_Seg04]
34 139.999924 0.000119 0.000000 1.217672 -4.603269 1.274391 139.999924
35 139.999924 0.000119 0.000000 0.639456 -3.434121 0.511940 139.999924
[Rope3_Seg05]
34 139.999924 -0.000238 0.000060 4.092112 -16.002689 11.110461 139.999924
35 139.999924 -0.000238 0.000060 1.852822 -9.973659 11.223876 139.999924
[Rope3_Seg06]
34 139.999893 -0.000119 -0.000060 3.553352 -14.629107 12.021705 139.999893
35 139.999893 -0.000119 -0.000060 1.113059 -8.637311 10.248439 139.999893
[Rope3_Seg07]
34 139.999771 0.000060 -0.000119 2.332907 -9.012519 8.599288 139.999771
35 139.999771 0.000060 -0.000119 0.595636 -6.412491 7.820812 139.999771
[Rope3_Seg08]
34 139.999985 -0.000060 0.000000 1.098150 -2.482247 2.604991 139.999985
35 139.999985 -0.000060 0.000000 0.542888 -2.387486 2.998350 139.999985
[Rope3_Seg09]
34 90.185997 -0.000179 -0.000060 89.793228 -1.359877 -0.847183 90.185997
35 90.185997 -0.000179 -0.000060 89.793228 -1.359877 -0.847183 90.185997
[R_rear_hand01]
34 103.366196 -6.073594 -10.757982 -177.714203 24.565960 -73.910950 104.101845
35 103.366196 -6.073594 -10.757982 -177.714203 24.565960 -73.910950 104.101845
[R_rear_hand02]
34 100.509819 12.039542 -7.992327 -12.874829 36.868488 72.167213 101.543350
35 100.509819 12.039542 -7.992327 -12.874829 36.868488 72.167213 101.543350
[R_rear_hand03]
34 101.539970 5.215704 5.435467 71.484581 -71.816628 21.513813 101.819031
35 101.539970 5.215704 5.435467 71.484581 -71.816628 21.513813 101.819031
[Rope4_Seg01]
34 -0.000006 -0.001014 -0.000153 48.492119 -0.112329 -117.017044 0.001025
35 -0.000007 -0.001043 -0.000153 47.443275 4.815210 -116.479645 0.001054
[Rope4_Seg02]
34 139.999985 0.000060 0.000119 0.241379 -1.200717 0.251355 139.999985
35 139.999985 0.000060 0.000119 0.346303 -0.121565 1.489976 139.999985
[Rope4_Seg03]
34 139.999924 0.000000 -0.000238 1.125272 -4.064221 2.372055 139.999924
35 139.999924 0.000000 -0.000238 0.834450 -0.943384 4.041419 139.999924
[Rope4_Seg04]
34 139.999985 0.000000 0.000119 -2.014399 -0.264188 -6.660587 139.999985
35 139.999985 0.000000 0.000119 1.166784 -0.069194 7.434761 139.999985
[Rope4_Seg05]
34 139.999802 -0.000060 -0.000119 -21.619616 28.811979 -42.177025 139.999802
35 139.999802 -0.000060 -0.000119 -9.824746 19.280775 -36.214966 139.999802
[Rope4_Seg06]
34 139.999924 0.000000 0.000060 -0.663940 9.629793 -8.653724 139.999924
35 139.999924 0.000000 0.000060 -0.764644 7.446258 -10.674623 139.999924
[Rope4_Seg07]
34 139.999802 0.000000 0.000000 0.246751 2.321222 -2.066113 139.999802
35 139.999802 0.000000 0.000000 0.115966 2.752303 -3.894607 139.999802
[Rope4_Seg08]
34 139.999924 0.000000 0.000119 -1.447465 0.001681 0.001639 139.999924
35 139.999924 0.000000 0.000119 -1.434494 0.385546 -0.547231 139.999924
[Rope4_Seg09]
34 90.185791 0.000060 0.000060 -135.617828 2.228885 0.850567 90.185791
35 90.185791 0.000060 0.000060 -135.617828 2.228885 0.850567 90.185791
[L_rear_hand01]
34 101.696655 -8.392275 -7.654577 -12.874829 -36.868488 107.832764 102.329041
35 101.696655 -8.392275 -7.654577 -12.874829 -36.868488 107.832764 102.329041
[L_rear_hand02]
34 102.726799 -1.568258 5.773216 71.484581 71.816628 158.486160 102.900848
35 102.726799 -1.568258 5.773216 71.484581 71.816628 158.486160 102.900848
[L_rear_hand03]
34 104.552910 9.721220 -10.420293 -177.714203 -24.565960 -106.089035 105.519653
35 104.552910 9.721220 -10.420293 -177.714203 -24.565960 -106.089035 105.519653
